<svg xmlns="http://www.w3.org/2000/svg" xmlns:svgjs="http://svgjs.com/svgjs" xmlns:xlink="http://www.w3.org/1999/xlink" width="288" height="288"><svg xmlns="http://www.w3.org/2000/svg" width="288" height="288" enable-background="new 0 0 282 148.4" viewBox="0 0 282 148.4"><path fill="#9a7946" d="M199.6,58.7l12.1,12.1l12.1-12.1c-3.5-2.1-7.6-3.4-12.1-3.4C207.3,55.3,203.1,56.5,199.6,58.7z" class="color000 svgShape"/><path fill="#9a7946" d="M175.6,38.6v72.1h72.1V38.6H175.6z M234.9,78.5c0,12.8-10.4,23.2-23.2,23.2c-12.8,0-23.2-10.4-23.2-23.2		c0-8.4,4.4-15.7,11.1-19.8l-11.1-11.1h46.4l-11.1,11.1C230.4,62.8,234.9,70.1,234.9,78.5z" class="color000 svgShape"/><path fill="#9a7946" d="M222.6 84.4c.4.2.7.2 1.1.2 1 0 1.9-.6 2.4-1.5 0 0 0-.1 0-.1.6-1.3 0-2.8-1.3-3.4-1.3-.6-2.9 0-3.5 1.3C220.7 82.3 221.3 83.8 222.6 84.4zM218.8 90.3c.5 0 .9-.1 1.4-.4l.1-.1c1.2-.8 1.6-2.4.8-3.6-.8-1.2-2.4-1.6-3.6-.8l-.1.1c-1.2.8-1.6 2.4-.8 3.6C217.1 89.9 218 90.3 218.8 90.3zM202 81c-.6-1.3-2.1-1.9-3.4-1.3-1.3.6-1.9 2.1-1.3 3.4l.1.2c.4.9 1.4 1.5 2.4 1.5.4 0 .7-.1 1.1-.3C202.1 83.9 202.6 82.3 202 81zM209.1 89.8c0 1.4 1.2 2.6 2.6 2.6l.1 0c1.4 0 2.6-1.2 2.5-2.6 0-1.4-1.2-2.6-2.7-2.6C210.2 87.2 209.1 88.4 209.1 89.8zM205.9 85.5c-1.2-.8-2.8-.4-3.6.8-.8 1.2-.4 2.8.8 3.6l.1.1c.4.3.9.4 1.4.4.9 0 1.7-.4 2.2-1.2C207.5 87.9 207.1 86.3 205.9 85.5z" class="color000 svgShape"/><polygon fill="#9a7946" points="46 57.1 56.4 84.9 65.5 84.9 75.9 57.1 75.9 84.9 87.2 84.9 87.2 38.6 73.9 38.6 61 70.7 48 38.6 34.7 38.6 34.7 84.9 46 84.9" class="color000 svgShape"/><rect width="11.3" height="46.4" x="91.1" y="38.6" fill="#9a7946" class="color000 svgShape"/><path fill="#9a7946" d="M136.7,82c3.7-1.9,6.5-4.7,8.5-8.2c2-3.5,3-7.6,3-12.1c0-4.6-1-8.6-3-12.1c-2-3.5-4.8-6.2-8.5-8.2s-7.9-2.9-12.8-2.9h-17.4
		v46.4H124C128.8,84.9,133.1,84,136.7,82z M117.9,75.2v-27h5.4c4.3,0,7.6,1.2,10,3.6c2.4,2.4,3.6,5.7,3.6,10s-1.2,7.6-3.6,9.9
		c-2.4,2.3-5.7,3.5-10,3.5H117.9z" class="color000 svgShape"/><rect width="11.3" height="46.4" x="151.6" y="38.6" fill="#9a7946" class="color000 svgShape"/><path fill="#9a7946" d="M95.7 106c-.2-.2-.4-.6-.4-1.1v-6.7h3.3v-4.2h-3.3v-4h-5.1v4h-2v3.7c-.3-.7-.7-1.4-1.2-2-1.2-1.3-2.7-1.9-4.7-1.9-1.1 0-2.1.2-2.9.6-.9.4-1.6 1-2.1 1.7v-2.2h-5.1v7.6c-.1-1.4-.4-2.7-1.1-3.8-.8-1.3-1.8-2.3-3.1-3-1.3-.7-2.8-1-4.4-1-1.6 0-3.1.3-4.4 1-1.3.7-2.3 1.7-3.1 3-.8 1.3-1.1 2.8-1.1 4.5 0 .4 0 .8.1 1.2h-5.6c-.4.9-1 1.5-1.8 2-.8.5-1.6.7-2.6.7-1.6 0-2.8-.5-3.8-1.6-1-1.1-1.5-2.5-1.5-4.4 0-1.8.5-3.3 1.5-4.4 1-1.1 2.2-1.6 3.8-1.6 1 0 1.8.2 2.6.7.8.5 1.4 1.1 1.8 2h5.6c-.6-2.3-1.8-4-3.5-5.4-1.8-1.3-3.9-2-6.4-2-2 0-3.8.5-5.4 1.4-1.6.9-2.8 2.2-3.7 3.8-.9 1.6-1.3 3.5-1.3 5.5 0 2.1.4 3.9 1.3 5.5.9 1.6 2.1 2.9 3.7 3.8 1.6.9 3.4 1.4 5.4 1.4 2.5 0 4.6-.7 6.4-1.9 1.8-1.3 2.9-3.1 3.5-5.3.1 1.2.5 2.3 1 3.3.7 1.3 1.8 2.3 3.1 3 1.3.7 2.8 1 4.4 1 1.6 0 3.1-.3 4.4-1 1.3-.7 2.4-1.7 3.1-3 .7-1.1 1-2.4 1.1-3.8v7.6h5.1v-9c0-1.1.3-2 .9-2.6.6-.6 1.3-.9 2.3-.9 1 0 1.7.3 2.3.9.6.6.9 1.5.9 2.6v9h5.1V101c0-1-.1-1.9-.4-2.7h1.8v6.6c0 2 .5 3.5 1.5 4.4 1 .9 2.5 1.4 4.3 1.4h2.6v-4.3h-1.8C96.3 106.4 95.9 106.2 95.7 106zM66.1 105.4c-.7.7-1.5 1.1-2.5 1.1-1 0-1.8-.4-2.4-1.1-.6-.7-1-1.7-1-3.1 0-1.3.3-2.4 1-3.1.7-.7 1.5-1.1 2.5-1.1 1 0 1.8.4 2.5 1.1.7.7 1 1.7 1 3.1C67.1 103.7 66.8 104.7 66.1 105.4zM125.1 100.5c-.2-1-.5-1.9-1-2.7-.8-1.3-1.8-2.3-3.1-3-1.3-.7-2.8-1-4.4-1-1.6 0-3.1.3-4.4 1-1.1.6-1.9 1.4-2.6 2.4v-3.4c-1.1 0-2.1.3-3 .8-.9.5-1.6 1.2-2.2 2.2v-2.8h-5.1v16.6h5.1V103c0-1.4.3-2.3 1-2.9.6-.5 1.6-.8 2.9-.8h.3c-.3.9-.5 2-.5 3.1 0 1.7.4 3.2 1.1 4.5.7 1.3 1.8 2.3 3.1 3 1.3.7 2.8 1 4.4 1 1.6 0 3.1-.3 4.4-1 1.3-.7 2.4-1.7 3.1-3 .5-.8.8-1.7 1-2.7v6.5h5.1v-22h-5.1V100.5zM119.1 105.4c-.7.7-1.5 1.1-2.5 1.1-1 0-1.8-.4-2.4-1.1-.6-.7-1-1.7-1-3.1 0-1.3.3-2.4 1-3.1.7-.7 1.5-1.1 2.5-1.1 1 0 1.8.4 2.5 1.1.7.7 1 1.7 1 3.1C120.1 103.7 119.7 104.7 119.1 105.4zM157.8 96.8v-2.8h-5.1v6.8c-.1-1.2-.5-2.2-1-3.1-.7-1.2-1.7-2.2-2.9-2.9-1.3-.7-2.7-1-4.3-1-1.6 0-3.1.3-4.4 1-1.3.7-2.3 1.7-3 3-.5.9-.8 1.9-1 3.1V88.6h-5.1v22h5.1v-6.9c.1 1.1.5 2.2 1 3.1.7 1.3 1.7 2.3 3 3 1.3.7 2.7 1 4.3 1 1.3 0 2.6-.2 3.7-.7 1.1-.5 2-1.2 2.7-2.1.7-.9 1.2-1.9 1.5-2.9H147c-.5 1.1-1.4 1.6-2.6 1.6-.9 0-1.6-.3-2.2-.8-.6-.5-.9-1.3-1-2.4h11.5c0-.1 0-.2 0-.3v7.4h5.1V103c0-1.4.3-2.3 1-2.9.6-.5 1.6-.8 2.9-.8h1.4v-5.4c-1.1 0-2.1.3-3 .8C159.1 95.2 158.4 95.9 157.8 96.8zM141.2 100.8c.1-.9.5-1.6 1.1-2.1.6-.5 1.3-.7 2.2-.7.9 0 1.6.3 2.2.8.6.5.9 1.2.9 2.1H141.2z" class="color000 svgShape"/></svg></svg>