<svg xmlns="http://www.w3.org/2000/svg" id="Layer_1" viewBox="0 0 288 216"><defs fill="#4e2551"><style>.cls-1{fill:#4e2551;}</style></defs><g><path class="cls-1" d="M23.55,111.31c-.87,0-1.72,.06-2.56,.16v16.12h23.02c-2.14-9.32-10.48-16.28-20.46-16.28Z" fill="#4e2551"/><path class="cls-1" d="M50.43,110.76c0-2.32,1.88-4.21,4.21-4.21v-12.62c-7.78,0-14.32,5.28-16.25,12.44l-4.9-12.44-12.51,4.93h0l4.95,12.58,12.4-4.89c-.35,1.34-.53,2.75-.53,4.2,0,9.29,7.53,16.83,16.83,16.83v-12.62c-2.32,0-4.21-1.88-4.21-4.21Z" fill="#4e2551"/></g><g><g><g><path class="cls-1" d="M236.22,100.4v20.6h-4.13v-20.6h4.13Z" fill="#4e2551"/><path class="cls-1" d="M244.39,120.14c-1.17-.51-2.18-1.3-2.95-2.32-.71-.95-1.12-2.09-1.16-3.28h4.27c.08,.85,.52,1.63,1.22,2.12,.8,.59,1.78,.89,2.77,.85,1.16,0,2.06-.22,2.7-.67,.6-.37,.96-1.02,.96-1.72,.02-.72-.4-1.38-1.06-1.67-1.09-.5-2.23-.9-3.39-1.2-1.24-.32-2.46-.72-3.66-1.18-.94-.39-1.78-.99-2.45-1.77-.69-.79-1.03-1.84-1.03-3.15,0-1.05,.32-2.07,.94-2.92,.69-.94,1.63-1.67,2.71-2.1,1.28-.53,2.65-.79,4.04-.76,2.27,0,4.1,.57,5.49,1.72,1.39,1.15,2.13,2.71,2.23,4.69h-4.13c-.04-.83-.44-1.61-1.09-2.14-.65-.53-1.54-.8-2.65-.8s-1.92,.21-2.5,.62c-.56,.35-.89,.97-.88,1.63,0,.51,.21,1,.59,1.34,.41,.38,.89,.67,1.41,.85,.56,.21,1.38,.47,2.47,.78,1.22,.31,2.41,.7,3.57,1.18,.93,.4,1.75,1.01,2.41,1.77,.67,.77,1.02,1.8,1.05,3.08,.02,1.09-.31,2.15-.94,3.04-.67,.93-1.59,1.66-2.65,2.1-1.28,.53-2.66,.79-4.04,.76-1.45,.02-2.9-.28-4.22-.87Z" fill="#4e2551"/><path class="cls-1" d="M263.2,120.14c-1.17-.51-2.18-1.3-2.95-2.32-.71-.95-1.12-2.09-1.16-3.28h4.27c.08,.85,.52,1.63,1.22,2.12,.8,.59,1.78,.89,2.77,.85,1.16,0,2.06-.22,2.7-.67,.6-.37,.96-1.02,.96-1.72,.02-.72-.41-1.38-1.07-1.67-1.09-.5-2.23-.9-3.39-1.2-1.24-.32-2.46-.72-3.66-1.18-.94-.39-1.78-.99-2.45-1.77-.69-.79-1.03-1.84-1.03-3.15,0-1.05,.33-2.07,.94-2.92,.69-.93,1.62-1.65,2.7-2.08,1.28-.53,2.66-.79,4.04-.76,2.27,0,4.1,.57,5.49,1.72,1.39,1.15,2.13,2.71,2.23,4.69h-4.13c-.04-.83-.44-1.61-1.09-2.14-.65-.53-1.54-.8-2.65-.8s-1.92,.21-2.5,.62c-.56,.35-.89,.97-.88,1.63,0,.51,.21,1,.59,1.34,.41,.38,.89,.67,1.42,.85,.55,.2,1.38,.46,2.46,.78,1.22,.31,2.41,.7,3.57,1.18,.93,.4,1.75,1,2.41,1.77,.67,.77,1.02,1.8,1.05,3.08,.02,1.09-.31,2.15-.94,3.04-.67,.93-1.59,1.66-2.65,2.1-1.28,.53-2.66,.79-4.04,.76-1.45,.01-2.89-.29-4.22-.89Z" fill="#4e2551"/><path class="cls-1" d="M214.53,105.27c-.85-1.53-2.12-2.79-3.66-3.63-3.25-1.69-7.12-1.69-10.37,0-.3,.17-.6,.35-.88,.55v-8.01h-4.13v26.82h4.13v-1.77c.24,.17,.5,.34,.76,.48,1.56,.87,3.32,1.31,5.11,1.29,1.83,.02,3.63-.42,5.24-1.29,1.56-.84,2.86-2.1,3.75-3.64,.94-1.64,1.41-3.51,1.38-5.4,.04-1.88-.42-3.75-1.33-5.4Zm-3.77,9.11c-.53,.96-1.31,1.75-2.27,2.28-.92,.5-1.95,.77-2.99,.76-1.57,.04-3.09-.61-4.15-1.77-1.1-1.18-1.65-2.84-1.65-4.98-.04-1.27,.24-2.53,.8-3.67,.48-.95,1.23-1.74,2.16-2.27,.9-.51,1.92-.77,2.95-.76,1.04,0,2.06,.26,2.97,.76,.94,.53,1.71,1.31,2.21,2.27,.59,1.14,.87,2.4,.83,3.68,.04,1.29-.26,2.56-.87,3.7Z" fill="#4e2551"/><circle class="cls-1" cx="234.16" cy="96.47" r="2.23" fill="#4e2551"/></g><path class="cls-1" d="M224.38,115.64v-21.44h-4.13v22.67c0,2.3,1.86,4.16,4.16,4.16h3.09v-4.13h-1.86c-.69,0-1.26-.56-1.26-1.26Z" fill="#4e2551"/></g><g><path class="cls-1" d="M75.7,105.21c.79-1.5,1.99-2.75,3.46-3.59,1.55-.87,3.3-1.3,5.07-1.27,2.41,0,4.41,.57,6,1.72,1.59,1.15,2.65,2.78,3.21,4.9h-4.46c-.32-.94-.93-1.75-1.74-2.32-.89-.58-1.94-.88-3.01-.83-1.69,0-3.04,.6-4.04,1.79s-1.5,2.87-1.5,5.01c0,2.15,.5,3.83,1.5,5.04,1,1.21,2.35,1.81,4.04,1.82,2.39,0,3.97-1.05,4.75-3.15h4.46c-.52,1.93-1.66,3.64-3.26,4.84-1.6,1.19-3.58,1.79-5.94,1.79-1.78,.03-3.53-.41-5.07-1.29-1.47-.86-2.67-2.11-3.46-3.63-.86-1.67-1.29-3.53-1.25-5.42-.04-1.88,.39-3.75,1.25-5.42Z" fill="#4e2551"/><path class="cls-1" d="M146.76,120.11c-1.17-.51-2.18-1.3-2.95-2.32-.71-.95-1.12-2.09-1.16-3.28h4.27c.08,.85,.52,1.63,1.22,2.12,.8,.59,1.78,.89,2.77,.85,1.16,0,2.06-.22,2.7-.67,.6-.37,.96-1.02,.96-1.72,.02-.72-.41-1.38-1.07-1.67-1.09-.5-2.23-.9-3.39-1.2-1.24-.32-2.46-.72-3.66-1.18-.95-.39-1.78-.99-2.45-1.77-.69-.79-1.03-1.84-1.03-3.15,0-1.05,.33-2.07,.94-2.92,.69-.93,1.62-1.65,2.7-2.08,1.28-.53,2.66-.79,4.04-.76,2.27,0,4.1,.57,5.49,1.72,1.39,1.15,2.13,2.71,2.23,4.69h-4.13c-.04-.83-.44-1.61-1.09-2.14-.65-.53-1.54-.8-2.65-.8s-1.95,.21-2.5,.62c-.54,.36-.86,.96-.85,1.61,0,.51,.21,1,.59,1.34,.41,.38,.89,.67,1.41,.85,.55,.21,1.38,.47,2.46,.78,1.22,.31,2.41,.7,3.57,1.18,.93,.4,1.75,1,2.41,1.77,.67,.77,1.02,1.8,1.05,3.08,.02,1.09-.31,2.15-.94,3.04-.67,.93-1.59,1.66-2.65,2.1-1.29,.53-2.67,.79-4.07,.75-1.45,.02-2.89-.27-4.22-.85Z" fill="#4e2551"/><path class="cls-1" d="M180.7,112.19h-15.26c.12,3.03,2.66,5.39,5.69,5.29,2.22,0,3.79-.93,4.72-2.79h4.45c-.59,1.81-1.74,3.39-3.28,4.51-1.57,1.18-3.54,1.77-5.9,1.77-1.79,.03-3.56-.41-5.13-1.29-1.5-.85-2.73-2.11-3.54-3.63-.88-1.67-1.33-3.53-1.29-5.42-.04-1.88,.39-3.74,1.25-5.42,.8-1.52,2.02-2.77,3.52-3.6,1.59-.87,3.39-1.3,5.2-1.27,1.76-.03,3.49,.39,5.04,1.23,1.46,.8,2.65,1.99,3.45,3.45,.84,1.58,1.27,3.34,1.23,5.13,0,.68-.05,1.36-.15,2.03Zm-4.17-3.33c.03-1.4-.57-2.74-1.63-3.66-1.1-.93-2.51-1.42-3.95-1.38-1.35-.03-2.66,.46-3.66,1.36-1.04,.96-1.69,2.27-1.81,3.68h11.05Z" fill="#4e2551"/><path class="cls-1" d="M138.7,110.63v-10.22h-4.19v1.72c-.27-.18-.54-.35-.83-.5-3.25-1.69-7.12-1.69-10.37,0-1.54,.84-2.81,2.09-3.66,3.62-.91,1.65-1.38,3.51-1.34,5.4-.04,1.89,.41,3.75,1.3,5.42,.83,1.52,2.08,2.78,3.59,3.63,1.56,.87,3.32,1.31,5.11,1.29,2.21,.05,4.38-.61,6.19-1.88v1.91h4.17v-10.24s.02-.09,.02-.14Zm-5.12,3.7c-.52,.96-1.3,1.75-2.25,2.28-.92,.5-1.95,.77-2.99,.76-1.57,.04-3.09-.61-4.15-1.77-1.1-1.18-1.65-2.84-1.65-4.98-.04-1.27,.23-2.54,.8-3.68,.48-.95,1.23-1.74,2.16-2.27,.9-.51,1.92-.77,2.95-.76,1.04,0,2.06,.26,2.97,.76,.94,.53,1.7,1.32,2.21,2.27,.59,1.14,.87,2.4,.83,3.68,.04,1.29-.27,2.57-.88,3.71Z" fill="#4e2551"/><path class="cls-1" d="M112.68,103.08c-.95-1.02-2.16-1.76-3.5-2.17-1.04-.32-2.13-.47-3.22-.46-1.73-.04-3.44,.38-4.96,1.22v-7.49h-4.13v26.82h4.13v-11.16c0-1.79,.45-3.17,1.36-4.13,.91-.96,2.13-1.44,3.68-1.43,1.55,0,2.77,.48,3.66,1.43,.89,.95,1.34,2.33,1.34,4.13v11.16h4.09v-10.37c0-3.28-.83-5.8-2.47-7.55Z" fill="#4e2551"/></g></g></svg>