<?xml version="1.0" encoding="UTF-8"?><svg id="Layer_1" xmlns="http://www.w3.org/2000/svg" viewBox="0 0 72 72"><path d="m48.45,21.61s.22.25.64.73c.1.12.22.25.35.4.14.17.32.42.5.65.36.49.81,1.06,1.14,1.67.18.31.37.63.57.98.17.36.34.73.52,1.12.09.2.18.39.27.6.08.21.15.43.23.64.15.44.32.89.45,1.37.53,1.91.78,4.14.59,6.54-.02.25-.05.51-.07.76-.04.3-.11.65-.16.98-.06.33-.12.66-.19,1-.08.31-.17.61-.26.93-.09.31-.18.62-.28.93-.12.3-.24.61-.37.92-.23.62-.55,1.21-.87,1.81l-.24.45-.28.43c-.19.29-.38.57-.57.86-.19.29-.42.55-.64.83-.22.27-.43.55-.67.81-.25.25-.49.51-.74.76l-.38.38-.41.35c-.27.23-.55.46-.83.7-.28.22-.59.42-.89.63-.58.44-1.24.77-1.88,1.13-.31.19-.67.31-1,.47-.34.14-.67.31-1.03.43-.71.22-1.41.5-2.15.63-.37.08-.73.16-1.1.23-.37.04-.75.09-1.12.13l-.56.06c-.19,0-.38,0-.56.01h-1.13s-.14.02-.14.02c-.21,0-.08,0-.13,0h-.03s-.06,0-.06,0l-.25-.02-.5-.05-.5-.05c-.09,0-.16-.01-.26-.03l-.29-.05c-.78-.14-1.58-.27-2.28-.51-.36-.12-.73-.2-1.07-.34l-1.04-.43c-.35-.13-.68-.32-1.01-.49-.33-.18-.67-.33-.98-.54-.62-.41-1.26-.8-1.82-1.28-1.17-.9-2.16-2-3.05-3.14-1.7-2.34-2.83-5.02-3.16-7.71-.36-2.69-.07-5.29.71-7.63.77-2.32,2.05-4.27,3.46-5.81,1.43-1.53,2.99-2.66,4.49-3.4.37-.2.75-.34,1.11-.5.18-.08.35-.16.53-.22.18-.06.35-.11.53-.17.34-.11.67-.22.99-.31.32-.07.63-.14.92-.2.58-.15,1.11-.17,1.57-.23.23-.02.44-.06.63-.06.19,0,.37,0,.53,0,.63,0,.97-.01.97-.01,0,0-.34.03-.96.09-.16.01-.33.03-.52.05-.19.02-.4.07-.62.11-.45.1-.97.16-1.52.35-.28.08-.57.17-.88.27-.3.11-.61.25-.93.38-.16.07-.33.13-.49.2-.16.08-.32.17-.49.26-.33.19-.69.34-1.02.57-1.38.83-2.77,2.02-3.98,3.55-1.2,1.53-2.22,3.42-2.73,5.56-.52,2.1-.59,4.49-.08,6.77.47,2.3,1.64,4.49,3.2,6.31.82.89,1.7,1.72,2.72,2.38.48.36,1.03.62,1.55.92.26.15.55.24.82.37.28.11.54.25.83.33l.85.27c.28.1.58.13.87.2.59.15,1.13.18,1.67.24l.2.02c.07,0,.16,0,.25,0h.5s.5,0,.5,0h.25s.06,0,.06,0h.03s.12,0-.07,0h.11s.87-.1.87-.1c.14-.01.29-.02.43-.04l.42-.09.84-.17c.27-.08.54-.17.81-.25.55-.14,1.05-.4,1.57-.6.26-.1.49-.26.74-.38.24-.14.49-.24.71-.41.45-.31.91-.59,1.31-.95.2-.17.42-.33.61-.51.19-.19.37-.37.56-.56l.28-.27.25-.3c.16-.2.33-.4.49-.59.16-.2.29-.42.43-.62.13-.21.3-.4.41-.63.12-.22.23-.43.35-.65l.18-.32.14-.33c.18-.44.39-.87.5-1.32.07-.22.14-.44.21-.65.05-.22.09-.44.14-.66.04-.22.09-.43.13-.64.02-.19.04-.38.05-.57.02-.19.05-.36.06-.57,0-.26,0-.51,0-.77-.01-1.64-.3-3.12-.76-4.34-.11-.31-.26-.59-.37-.87-.06-.14-.12-.27-.18-.41-.07-.13-.15-.25-.22-.37-.14-.24-.27-.48-.4-.7-.15-.21-.29-.41-.43-.6-.26-.41-.51-.64-.7-.88-.11-.12-.17-.22-.29-.34-.14-.13-.27-.26-.38-.37-.46-.44-.7-.67-.7-.67-1.4-1.35-1.44-3.57-.09-4.97,1.35-1.4,3.57-1.44,4.97-.09.07.07.14.14.2.21Z"/></svg>