<?xml version="1.0" encoding="utf-8"?>
<!-- Generator: Adobe Illustrator 27.3.1, SVG Export Plug-In . SVG Version: 6.00 Build 0)  -->
<svg version="1.1" id="Layer_1" xmlns="http://www.w3.org/2000/svg" xmlns:xlink="http://www.w3.org/1999/xlink" x="0px" y="0px"
	 viewBox="0 0 216 144" style="enable-background:new 0 0 216 144;" xml:space="preserve">
<style type="text/css">
	.st0{fill:#F6A7B9;}
	.st1{fill:#4E2551;}
</style>
<g>
	<g>
		<path class="st0" d="M197.2,56.1l-121.4,0c-0.1,0.4-0.3,0.9-0.4,1.3l122.1,0C197.5,57,197.4,56.6,197.2,56.1z"/>
		<path class="st0" d="M196.1,52.4l-119,0c-0.1,0.4-0.3,0.8-0.4,1.2l119.8,0C196.3,53.2,196.2,52.8,196.1,52.4z"/>
		<path class="st0" d="M194.6,48.7l-116.2,0c-0.2,0.4-0.3,0.7-0.4,1.1l117,0C194.9,49.4,194.8,49.1,194.6,48.7z"/>
		<path class="st0" d="M192.9,45L80.2,45c-0.2,0.3-0.3,0.7-0.5,1l113.7,0C193.3,45.6,193.1,45.3,192.9,45z"/>
		<path class="st0" d="M190.9,41.3l-108.6,0c-0.2,0.3-0.3,0.6-0.5,0.9l109.7,0C191.2,41.9,191.1,41.6,190.9,41.3z"/>
		<path class="st0" d="M199.3,67.3l-125.5,0c-0.1,0.5-0.1,1.1-0.1,1.6l125.8,0C199.4,68.4,199.4,67.8,199.3,67.3z"/>
		<path class="st0" d="M198.2,59.8l-123.2,0c-0.1,0.5-0.2,0.9-0.3,1.4l123.8,0C198.4,60.8,198.3,60.3,198.2,59.8z"/>
		<path class="st0" d="M198.9,63.6l-124.6,0c-0.1,0.5-0.1,1-0.2,1.5l125,0C199,64.6,199,64.1,198.9,63.6z"/>
		<path class="st0" d="M182.5,30.1l-91.9,0c-0.2,0.2-0.4,0.4-0.5,0.6l93,0C182.9,30.5,182.7,30.3,182.5,30.1z"/>
		<path class="st0" d="M168.6,19l-64,0c-0.2,0.1-0.3,0.2-0.5,0.3l64.9,0C168.9,19.1,168.7,19.1,168.6,19z"/>
		<path class="st0" d="M174.2,22.7l-75.2,0c-0.2,0.1-0.3,0.2-0.5,0.4l76.2,0C174.5,22.9,174.3,22.8,174.2,22.7z"/>
		<path class="st0" d="M149,11.5l-24.9,0c-0.2,0-0.4,0.1-0.6,0.1l26,0C149.4,11.6,149.2,11.5,149,11.5z"/>
		<path class="st0" d="M178.7,26.4l-84.3,0c-0.2,0.2-0.3,0.3-0.5,0.5l85.3,0C179.1,26.7,178.9,26.6,178.7,26.4z"/>
		<path class="st0" d="M188.5,37.5l-103.9,0c-0.2,0.3-0.4,0.5-0.5,0.8l105,0C188.9,38.1,188.7,37.8,188.5,37.5z"/>
		<path class="st0" d="M185.7,33.8l-98.3,0c-0.2,0.2-0.4,0.5-0.5,0.7l99.4,0C186.1,34.3,185.9,34.1,185.7,33.8z"/>
		<path class="st0" d="M199.6,71l-126,0c0,0.6,0,1.1,0,1.7l126.1,0C199.6,72.1,199.6,71.6,199.6,71z"/>
		<path class="st0" d="M161.2,15.3l-49.3,0c-0.1,0-0.2,0.1-0.3,0.2l50,0C161.5,15.4,161.4,15.3,161.2,15.3z"/>
		<path class="st0" d="M179.6,119.3l-86.2,0c1.1,1.1,2.3,2.1,3.5,3.1l79.1,0C177.3,121.4,178.5,120.4,179.6,119.3z"/>
		<path class="st0" d="M183.3,115.6l-93.5,0c0.9,1,1.9,2,2.9,3l87.7,0C181.4,117.6,182.4,116.6,183.3,115.6z"/>
		<path class="st0" d="M186.4,111.9l-99.7,0c0.8,1,1.6,1.9,2.4,2.9l95,0C184.9,113.8,185.6,112.9,186.4,111.9z"/>
		<path class="st0" d="M175.3,123l-77.5,0c1.4,1.1,2.9,2.2,4.5,3.2l68.6,0C172.4,125.2,173.8,124.2,175.3,123z"/>
		<path class="st0" d="M170,126.8l-66.9,0c1.9,1.2,3.9,2.3,5.9,3.3l55.1,0C166.1,129.1,168.1,128,170,126.8z"/>
		<path class="st0" d="M199.6,74.7l-126.1,0c0,0.6,0,1.2,0,1.8l126,0C199.6,75.9,199.6,75.3,199.6,74.7z"/>
		<path class="st0" d="M189.1,108.2l-105.1,0c0.6,0.9,1.3,1.9,1.9,2.8l101.2,0C187.8,110,188.5,109.1,189.1,108.2z"/>
		<path class="st0" d="M163.2,130.5l-53.3,0c2.9,1.4,5.9,2.5,9.1,3.4l35.1,0C157.2,133,160.3,131.8,163.2,130.5z"/>
		<path class="st0" d="M153,134.2l-32.9,0c5.2,1.4,10.8,2.2,16.5,2.2C142.2,136.4,147.7,135.6,153,134.2z"/>
		<path class="st0" d="M199,82.1l-124.9,0c0.1,0.7,0.2,1.4,0.3,2l124.2,0C198.8,83.5,198.9,82.8,199,82.1z"/>
		<path class="st0" d="M198.4,85.9l-123.6,0c0.1,0.7,0.3,1.4,0.5,2.1l122.6,0C198,87.3,198.2,86.6,198.4,85.9z"/>
		<path class="st0" d="M197.5,89.6l-121.9,0c0.2,0.8,0.4,1.5,0.6,2.3l120.6,0C197.1,91.1,197.3,90.3,197.5,89.6z"/>
		<path class="st0" d="M191.4,104.5l-109.7,0c0.5,0.9,1.1,1.8,1.6,2.7l106.4,0C190.3,106.2,190.9,105.4,191.4,104.5z"/>
		<path class="st0" d="M199.4,78.4l-125.7,0c0.1,0.6,0.1,1.3,0.2,1.9l125.3,0C199.3,79.7,199.3,79.1,199.4,78.4z"/>
		<path class="st0" d="M193.3,100.7l-113.6,0c0.4,0.9,0.9,1.7,1.3,2.6l111,0C192.5,102.5,192.9,101.6,193.3,100.7z"/>
		<path class="st0" d="M196.4,93.3l-119.6,0c0.3,0.8,0.5,1.6,0.8,2.4l117.9,0C195.8,94.9,196.1,94.1,196.4,93.3z"/>
		<path class="st0" d="M195,97l-116.9,0c0.3,0.8,0.7,1.6,1.1,2.5l114.7,0C194.3,98.7,194.6,97.8,195,97z"/>
	</g>
	<g>
		<path class="st1" d="M130.6,33.8c-0.9-1.1-1.8-2.1-2.7-3.1l-93,0c-0.9,1-1.8,2.1-2.7,3.1L130.6,33.8z"/>
		<path class="st1" d="M137.8,45c-0.5-1-1-1.9-1.5-2.8l-109.7,0c-0.5,0.9-1,1.9-1.5,2.8L137.8,45z"/>
		<path class="st1" d="M133.4,37.6c-0.7-1-1.5-2-2.2-3l-99.4,0c-0.8,1-1.5,2-2.2,3L133.4,37.6z"/>
		<path class="st1" d="M139.5,48.7c-0.4-0.9-0.8-1.8-1.2-2.7L24.6,46c-0.4,0.9-0.8,1.8-1.2,2.7L139.5,48.7z"/>
		<path class="st1" d="M141,52.4c-0.3-0.9-0.6-1.8-1-2.6l-117,0c-0.3,0.9-0.7,1.7-1,2.6L141,52.4z"/>
		<path class="st1" d="M143.1,59.9c-0.2-0.8-0.4-1.6-0.6-2.4l-122.1,0c-0.2,0.8-0.4,1.6-0.6,2.4L143.1,59.9z"/>
		<path class="st1" d="M142.1,56.1c-0.2-0.8-0.5-1.7-0.8-2.5l-119.8,0c-0.3,0.8-0.5,1.7-0.8,2.5L142.1,56.1z"/>
		<path class="st1" d="M143.8,63.6c-0.1-0.8-0.3-1.5-0.4-2.3l-123.8,0c-0.1,0.8-0.3,1.5-0.4,2.3L143.8,63.6z"/>
		<path class="st1" d="M135.8,41.3c-0.6-1-1.2-2-1.8-2.9l-105,0c-0.6,1-1.2,1.9-1.8,2.9L135.8,41.3z"/>
		<path class="st1" d="M127.4,30.1c-1.1-1.1-2.1-2.2-3.3-3.2l-85.3,0c-1.1,1-2.2,2.1-3.3,3.2L127.4,30.1z"/>
		<path class="st1" d="M144.5,74.7c0-0.5,0-0.9,0-1.4c0-0.2,0-0.4,0-0.6l-126.1,0c0,0.2,0,0.4,0,0.6c0,0.5,0,0.9,0,1.4L144.5,74.7z"
			/>
		<path class="st1" d="M106.1,15.3c-3.7-1.6-7.6-2.8-11.7-3.7l-26,0c-4,0.8-8,2.1-11.7,3.7L106.1,15.3z"/>
		<path class="st1" d="M144.2,67.3c-0.1-0.7-0.2-1.5-0.3-2.2l-125,0c-0.1,0.7-0.2,1.5-0.3,2.2L144.2,67.3z"/>
		<path class="st1" d="M123.6,26.4c-1.3-1.2-2.7-2.3-4.1-3.3l-76.2,0c-1.4,1.1-2.8,2.2-4.1,3.4L123.6,26.4z"/>
		<path class="st1" d="M69,11.5l24.9,0c-4-0.8-8.2-1.2-12.4-1.2C77.2,10.3,73.1,10.7,69,11.5z"/>
		<path class="st1" d="M119.1,22.7c-1.7-1.2-3.4-2.4-5.2-3.5l-64.9,0c-1.8,1.1-3.5,2.2-5.2,3.5L119.1,22.7z"/>
		<path class="st1" d="M113.5,19c-2.2-1.3-4.6-2.5-7-3.6l-50,0c-2.4,1-4.7,2.2-7,3.6L113.5,19z"/>
		<path class="st1" d="M97.9,134.2c0.4-0.1,0.7-0.2,1.1-0.3l-35.1,0c0.4,0.1,0.7,0.2,1.1,0.3L97.9,134.2z"/>
		<path class="st1" d="M131.3,111.9c0.2-0.3,0.5-0.6,0.7-0.9l-101.2,0c0.2,0.3,0.5,0.6,0.7,0.9L131.3,111.9z"/>
		<path class="st1" d="M128.2,115.6c0.2-0.3,0.5-0.6,0.7-0.8l-95,0c0.2,0.3,0.5,0.6,0.7,0.8L128.2,115.6z"/>
		<path class="st1" d="M134,108.2c0.2-0.3,0.4-0.7,0.7-1l-106.4,0c0.2,0.3,0.4,0.7,0.7,1L134,108.2z"/>
		<path class="st1" d="M124.5,119.3c0.3-0.2,0.5-0.5,0.8-0.7l-87.7,0c0.3,0.2,0.5,0.5,0.8,0.7L124.5,119.3z"/>
		<path class="st1" d="M114.9,126.8c0.3-0.2,0.5-0.3,0.8-0.5l-68.6,0c0.3,0.2,0.5,0.4,0.8,0.5L114.9,126.8z"/>
		<path class="st1" d="M108.1,130.5c0.3-0.1,0.6-0.3,0.9-0.4l-55.1,0c0.3,0.1,0.6,0.3,0.9,0.4L108.1,130.5z"/>
		<path class="st1" d="M136.3,104.5c0.2-0.4,0.4-0.8,0.7-1.2l-111,0c0.2,0.4,0.4,0.8,0.7,1.2L136.3,104.5z"/>
		<path class="st1" d="M120.2,123.1c0.3-0.2,0.5-0.4,0.8-0.6l-79.1,0c0.3,0.2,0.5,0.4,0.8,0.6L120.2,123.1z"/>
		<path class="st1" d="M138.2,100.7c0.2-0.4,0.4-0.8,0.6-1.3l-114.7,0c0.2,0.4,0.4,0.8,0.6,1.3L138.2,100.7z"/>
		<path class="st1" d="M143.3,85.9c0.1-0.6,0.2-1.1,0.3-1.7l-124.2,0c0.1,0.6,0.2,1.1,0.3,1.7L143.3,85.9z"/>
		<path class="st1" d="M143.9,82.2c0.1-0.6,0.2-1.2,0.2-1.8l-125.3,0c0.1,0.6,0.1,1.2,0.2,1.8L143.9,82.2z"/>
		<path class="st1" d="M144.3,78.4c0.1-0.6,0.1-1.3,0.1-1.9l-126,0c0,0.6,0.1,1.3,0.1,1.9L144.3,78.4z"/>
		<path class="st1" d="M142.4,89.6c0.1-0.5,0.3-1,0.4-1.6l-122.6,0c0.1,0.5,0.3,1.1,0.4,1.6L142.4,89.6z"/>
		<path class="st1" d="M139.9,97c0.2-0.5,0.4-0.9,0.5-1.4l-117.9,0c0.2,0.5,0.4,0.9,0.5,1.4L139.9,97z"/>
		<path class="st1" d="M141.3,93.3c0.2-0.5,0.3-1,0.5-1.5l-120.6,0c0.2,0.5,0.3,1,0.5,1.5L141.3,93.3z"/>
		<path class="st1" d="M144.5,71c0-0.7-0.1-1.4-0.1-2.1L18.6,69c0,0.7-0.1,1.4-0.1,2.1L144.5,71z"/>
	</g>
</g>
</svg>
